<svg xmlns="http://www.w3.org/2000/svg" width="64" height="64" fill="none"><path fill="#1D1D1D" d="M22.4 3.2c-9.051 0-13.576 0-16.388 2.812C3.2 8.823 3.2 13.35 3.2 22.4v19.2c0 9.05 0 13.576 2.812 16.388C8.824 60.8 13.349 60.8 22.4 60.8h19.2c9.05 0 13.577 0 16.389-2.812C60.8 55.176 60.8 50.65 60.8 41.6V22.4c0-9.05 0-13.576-2.811-16.388C55.177 3.2 50.65 3.2 41.599 3.2H22.4ZM41.6 8c6.788 0 10.182 0 12.29 2.108C56 12.218 56 15.612 56 22.4V32c0 6.788 0 10.182-2.11 12.291-2.108 2.109-5.502 2.11-12.29 2.11H27.2c-6.788 0-10.183-.001-12.292-2.11C12.8 42.182 12.8 38.788 12.8 32v-9.6c0-6.788 0-10.183 2.108-12.292C17.018 8 20.412 8 27.2 8h14.4Zm-1.703 10.925 3.737 4.79-3.704 4.51 1.67 1.372 1.669 1.37 4.8-5.846 1.097-1.336-1.063-1.363-4.8-6.153-3.406 2.656Zm-14.4 3.497-1.063 1.363 1.097 1.336 4.8 5.847 1.67-1.371 1.67-1.371-3.705-4.51 3.737-4.791-3.406-2.656-4.8 6.153Z"/></svg>