<svg xmlns="http://www.w3.org/2000/svg" width="951" height="256" fill="none"><path fill="#CDFF52" fill-rule="evenodd" d="M214.627 41.373C224 50.745 224 65.83 224 96v64c0 30.17 0 45.255-9.373 54.627C205.255 224 190.17 224 160 224H96c-30.17 0-45.255 0-54.627-9.373C32 205.255 32 190.17 32 160V96c0-30.17 0-45.255 9.373-54.627C50.745 32 65.83 32 96 32h64c30.17 0 45.255 0 54.627 9.373Zm-13.656 13.656C208 62.06 208 73.373 208 96v32c0 22.627 0 33.941-7.029 40.971C193.941 176 182.627 176 160 176h-48c-22.627 0-33.941 0-40.97-7.029C64 161.941 64 150.627 64 128V96c0-22.627 0-33.941 7.03-40.97C78.058 48 89.372 48 112 48h48c22.627 0 33.941 0 40.971 7.03Z" clip-rule="evenodd"/><path stroke="#CDFF52" stroke-width="14.4" d="m160 80 16 20.513L160 120m-32-40-16 20.513L128 120"/><path fill="#fff" d="M349.12 141.86v5.6c0 8.853-2.64 16-7.92 21.44-5.28 5.44-12.373 8.16-21.28 8.16-8.853 0-15.947-2.72-21.28-8.16-5.28-5.44-7.92-12.587-7.92-21.44V81.54c0-8.907 2.64-16.053 7.92-21.44 5.333-5.44 12.427-8.16 21.28-8.16 8.907 0 16 2.72 21.28 8.16 5.28 5.387 7.92 12.533 7.92 21.44v5.6h-18.4v-5.6c0-3.36-.96-6.053-2.88-8.08-1.92-2.08-4.56-3.12-7.92-3.12-3.36 0-6 1.04-7.92 3.12-1.92 2.027-2.88 4.72-2.88 8.08v65.92c0 3.36.96 6.08 2.88 8.16 1.92 2.027 4.56 3.04 7.92 3.04 3.36 0 6-1.013 7.92-3.04 1.92-2.08 2.88-4.8 2.88-8.16v-5.6h18.4Zm41.396 34.64c-5.6 0-10.48-1.2-14.64-3.6-4.16-2.453-7.413-5.867-9.76-10.24-2.293-4.373-3.44-9.467-3.44-15.28v-33.44c0-5.76 1.147-10.827 3.44-15.2 2.347-4.427 5.6-7.84 9.76-10.24 4.16-2.453 9.04-3.68 14.64-3.68 8.427 0 15.147 2.667 20.16 8 5.067 5.333 7.6 12.373 7.6 21.12v33.44c0 8.693-2.533 15.733-7.6 21.12-5.013 5.333-11.733 8-20.16 8Zm0-17.2c3.307 0 5.894-.987 7.76-2.96 1.867-1.973 2.8-4.56 2.8-7.76v-35.84c0-3.2-.933-5.787-2.8-7.76-1.866-1.973-4.453-2.96-7.76-2.96-3.306 0-5.92.987-7.84 2.96-1.866 1.973-2.8 4.56-2.8 7.76v35.84c0 3.2.934 5.787 2.8 7.76 1.92 1.973 4.534 2.96 7.84 2.96Zm66.222 17.2c-3.894 0-7.547-.853-10.96-2.56-3.414-1.76-6.187-4.667-8.32-8.72-2.134-4.053-3.2-9.6-3.2-16.64v-35.84c0-6.987 1.066-12.507 3.2-16.56 2.133-4.107 4.906-7.013 8.32-8.72 3.413-1.76 7.066-2.64 10.96-2.64 4.533 0 8.346.96 11.439 2.88 3.147 1.867 5.601 4.507 7.361 7.92l-2.96 4V54.5h17.2v120h-17.2v-12.72l2.96 3.92c-1.76 3.413-4.214 6.08-7.361 8-3.093 1.867-6.906 2.8-11.439 2.8Zm5.28-17.2c3.36 0 5.946-.96 7.76-2.88 1.866-1.973 2.8-4.587 2.8-7.84v-35.84c0-3.2-.934-5.787-2.8-7.76-1.814-1.973-4.4-2.96-7.76-2.96-3.36 0-5.974.987-7.84 2.96-1.814 1.973-2.72 4.56-2.72 7.76v35.84c0 3.2.906 5.787 2.72 7.76 1.866 1.973 4.48 2.96 7.84 2.96Zm73.186 17.2c-5.6 0-10.48-1.2-14.64-3.6-4.16-2.453-7.414-5.867-9.76-10.24-2.294-4.373-3.44-9.467-3.44-15.28v-33.44c0-5.76 1.146-10.827 3.44-15.2 2.346-4.427 5.6-7.84 9.76-10.24 4.16-2.453 9.04-3.68 14.64-3.68 8.426 0 15.146 2.667 20.16 8 5.066 5.333 7.6 12.373 7.6 21.12v20.72h-40.88v-16h23.68v-5.92c0-3.2-.934-5.787-2.8-7.76-1.867-1.973-4.454-2.96-7.76-2.96-3.307 0-5.92.987-7.84 2.96-1.867 1.973-2.8 4.56-2.8 7.76v35.84c0 3.2.933 5.787 2.8 7.76 1.92 1.973 4.533 2.96 7.84 2.96 3.306 0 5.893-.987 7.76-2.96 1.866-1.973 2.8-4.56 2.8-7.76v-2.8h17.2v1.6c0 8.693-2.534 15.733-7.6 21.12-5.014 5.333-11.734 8-20.16 8Zm91.672-2-22-57.36-5.44 8.08V94.98l27.44-40.48h19.84l-29.28 43.68 29.2 76.32h-19.76Zm-44.24 0v-120h18.4v120h-18.4Zm93.729 2c-7.467 0-13.2-2.24-17.2-6.72-3.947-4.48-5.92-10.16-5.92-17.04 0-4.053.64-7.467 1.92-10.24 1.333-2.773 3.04-5.093 5.12-6.96a31.658 31.658 0 0 1 6.96-4.64 50.85 50.85 0 0 1 8.88-3.6 194.5 194.5 0 0 0 8.48-2.88c2.613-1.013 4.72-2.267 6.32-3.76 1.6-1.547 2.4-3.6 2.4-6.16v-1.76c0-3.2-.96-5.787-2.88-7.76-1.867-1.973-4.453-2.96-7.76-2.96-3.36 0-5.973.987-7.84 2.96-1.813 1.973-2.72 4.56-2.72 7.76v4h-17.2v-2.8c0-8.747 2.507-15.787 7.52-21.12 5.067-5.333 11.813-8 20.24-8 5.6 0 10.48 1.227 14.64 3.68 4.16 2.4 7.387 5.787 9.68 10.16 2.347 4.373 3.52 9.467 3.52 15.28v60.56h-17.2v-13.2l2.96 3.84c-1.76 3.68-4.347 6.507-7.76 8.48-3.413 1.92-7.467 2.88-12.16 2.88Zm5.12-15.92c3.307 0 6.107-.96 8.4-2.88s3.44-4.96 3.44-9.12v-13.36c-2.027 1.493-4.4 2.587-7.12 3.28a55.547 55.547 0 0 0-7.92 2.72c-2.507 1.013-4.453 2.267-5.84 3.76-1.333 1.493-2 3.44-2 5.84 0 2.667.933 4.96 2.8 6.88 1.92 1.92 4.667 2.88 8.24 2.88Zm47.97 13.92V86.9h17.2v13.76l-3.12-3.68c1.867-3.733 4.427-6.533 7.68-8.4s7.013-2.8 11.28-2.8h3.92v17.2h-9.28c-3.253 0-5.813.88-7.68 2.64-1.867 1.707-2.8 4.16-2.8 7.36v61.52h-17.2Zm47.344 0V86.9h17.2v12.8l-2.96-3.92c1.76-3.467 4.213-6.16 7.36-8.08 3.146-1.92 6.96-2.88 11.44-2.88 4.853 0 9.333 1.307 13.44 3.92 4.106 2.613 6.826 6.933 8.16 12.96l-4.48-.96c1.493-4.96 3.973-8.853 7.44-11.68 3.466-2.827 7.946-4.24 13.44-4.24 3.893 0 7.52.827 10.88 2.48 3.36 1.6 6.08 4.187 8.16 7.76 2.08 3.573 3.12 8.267 3.12 14.08v65.36h-17.2v-61.76c0-3.2-.934-5.787-2.8-7.76-1.814-1.973-4.32-2.96-7.52-2.96-3.254 0-5.814.987-7.68 2.96-1.867 1.973-2.8 4.56-2.8 7.76v61.76h-17.2v-61.76c0-3.2-.934-5.787-2.8-7.76-1.814-1.973-4.32-2.96-7.52-2.96-3.254 0-5.814.987-7.68 2.96-1.867 1.973-2.8 4.56-2.8 7.76v61.76h-17.2Zm130.816 2c-7.467 0-13.2-2.24-17.2-6.72-3.947-4.48-5.92-10.16-5.92-17.04 0-4.053.64-7.467 1.92-10.24 1.333-2.773 3.04-5.093 5.12-6.96a31.658 31.658 0 0 1 6.96-4.64 50.85 50.85 0 0 1 8.88-3.6 194.5 194.5 0 0 0 8.48-2.88c2.613-1.013 4.72-2.267 6.32-3.76 1.6-1.547 2.4-3.6 2.4-6.16v-1.76c0-3.2-.96-5.787-2.88-7.76-1.867-1.973-4.453-2.96-7.76-2.96-3.36 0-5.973.987-7.84 2.96-1.813 1.973-2.72 4.56-2.72 7.76v4h-17.2v-2.8c0-8.747 2.507-15.787 7.52-21.12 5.067-5.333 11.813-8 20.24-8 5.6 0 10.48 1.227 14.64 3.68 4.16 2.4 7.387 5.787 9.68 10.16 2.347 4.373 3.52 9.467 3.52 15.28v60.56h-17.2v-13.2l2.96 3.84c-1.76 3.68-4.347 6.507-7.76 8.48-3.413 1.92-7.467 2.88-12.16 2.88Zm5.12-15.92c3.307 0 6.107-.96 8.4-2.88s3.44-4.96 3.44-9.12v-13.36c-2.027 1.493-4.4 2.587-7.12 3.28a55.547 55.547 0 0 0-7.92 2.72c-2.507 1.013-4.453 2.267-5.84 3.76-1.333 1.493-2 3.44-2 5.84 0 2.667.933 4.96 2.8 6.88 1.92 1.92 4.667 2.88 8.24 2.88Z"/></svg>