<svg xmlns="http://www.w3.org/2000/svg" width="32" height="32" fill="none"><path fill="#CDFF52" d="M16 3h2v2h-2V3Zm0 2h2v2h-2V5Zm0 2h2v2h-2V7Zm0 2h2v2h-2V9Zm0 2h2v2h-2v-2Zm0 2h2v2h-2v-2Zm2 0h2v2h-2v-2Zm2 0h2v2h-2v-2Zm2 0h2v2h-2v-2Zm2 0h2v2h-2v-2Zm2 0h2v2h-2v-2ZM4 17h2v2H4v-2Zm2 0h2v2H6v-2Zm2 0h2v2H8v-2Zm2 0h2v2h-2v-2Zm2 0h2v2h-2v-2Zm2 0h2v2h-2v-2Zm0 2h2v2h-2v-2Zm0 2h2v2h-2v-2Zm0 2h2v2h-2v-2Zm0 2h2v2h-2v-2Zm0 2h2v2h-2v-2Zm0-22h2v2h-2V5Zm-2 2h2v2h-2V7Zm-2 2h2v2h-2V9Zm-2 2h2v2H8v-2Zm-2 2h2v2H6v-2Zm-2 2h2v2H4v-2Zm22 0h2v2h-2v-2Zm-2 2h2v2h-2v-2Zm-2 2h2v2h-2v-2Zm-2 2h2v2h-2v-2Zm-2 2h2v2h-2v-2Zm-2 2h2v2h-2v-2Z"/></svg>