<svg xmlns="http://www.w3.org/2000/svg" width="32" height="32" fill="none"><path fill="#CDFF52" d="M14 8h2v2h-2zm2 0h2v2h-2zm-4 0h2v2h-2zm6 0h2v2h-2zm-8 2h2v2h-2zm10 0h2v2h-2zM8 10h2v2H8zm14 0h2v2h-2zM6 12h2v2H6zm18 0h2v2h-2zM4 14h2v2H4zm22 0h2v2h-2zM2 16h2v2H2zm26 0h2v2h-2zM4 18h2v2H4zm22 0h2v2h-2zM6 20h2v2H6zm18 0h2v2h-2zM8 22h2v2H8zm14 0h2v2h-2zm-12 0h2v2h-2zm10 0h2v2h-2zm-8 2h2v2h-2zm6 0h2v2h-2zm-4 0h2v2h-2zm2 0h2v2h-2zm-2-12h2v2h-2zm2 0h2v2h-2zm-2 8h2v2h-2zm2 0h2v2h-2zm-4-2h2v2h-2zm6 0h2v2h-2zm-8-2h2v2h-2zm10 0h2v2h-2zm-8-2h2v2h-2zm6 0h2v2h-2z"/></svg>